<mxfile host="app.diagrams.net" modified="2023-03-16T10:01:48.688Z" agent="5.0 (Macintosh; Intel Mac OS X 10_15_7) AppleWebKit/537.36 (KHTML, like Gecko) Chrome/110.0.0.0 Safari/537.36" version="20.8.1" etag="HVFwwOzkFHZ_go9tCmbS" type="github">
  <diagram id="5WIHDxnv6xqtbwjojjQo" name="Page-1">
    <mxGraphModel dx="1434" dy="1718" grid="1" gridSize="10" guides="1" tooltips="1" connect="1" arrows="1" fold="1" page="1" pageScale="1" pageWidth="850" pageHeight="1100" math="0" shadow="0">
      <root>
        <mxCell id="0" />
        <mxCell id="1" parent="0" />
        <mxCell id="infSpyxQJ12MtSqTKsKa-49" value="" style="rounded=1;whiteSpace=wrap;html=1;shadow=0;glass=0;dashed=1;" vertex="1" parent="1">
          <mxGeometry x="70" y="390" width="420" height="470" as="geometry" />
        </mxCell>
        <mxCell id="infSpyxQJ12MtSqTKsKa-53" style="edgeStyle=orthogonalEdgeStyle;rounded=0;orthogonalLoop=1;jettySize=auto;html=1;exitX=0.5;exitY=1;exitDx=0;exitDy=0;exitPerimeter=0;fontSize=18;" edge="1" parent="1" source="infSpyxQJ12MtSqTKsKa-4" target="infSpyxQJ12MtSqTKsKa-49">
          <mxGeometry relative="1" as="geometry" />
        </mxCell>
        <mxCell id="infSpyxQJ12MtSqTKsKa-4" value="" style="outlineConnect=0;dashed=0;verticalLabelPosition=bottom;verticalAlign=top;align=center;html=1;shape=mxgraph.aws3.classic_load_balancer;fillColor=#F58534;gradientColor=none;" vertex="1" parent="1">
          <mxGeometry x="245.25" y="260" width="69" height="72" as="geometry" />
        </mxCell>
        <mxCell id="infSpyxQJ12MtSqTKsKa-7" value="" style="rounded=0;whiteSpace=wrap;html=1;glass=0;shadow=0;strokeColor=#66B2FF;" vertex="1" parent="1">
          <mxGeometry x="111.25" y="430" width="340" height="400" as="geometry" />
        </mxCell>
        <mxCell id="infSpyxQJ12MtSqTKsKa-6" style="edgeStyle=orthogonalEdgeStyle;rounded=0;orthogonalLoop=1;jettySize=auto;html=1;startArrow=none;" edge="1" parent="1" source="infSpyxQJ12MtSqTKsKa-11" target="infSpyxQJ12MtSqTKsKa-4">
          <mxGeometry relative="1" as="geometry">
            <mxPoint x="280" y="140" as="sourcePoint" />
          </mxGeometry>
        </mxCell>
        <mxCell id="infSpyxQJ12MtSqTKsKa-8" value="&lt;b&gt;&lt;font style=&quot;font-size: 21px;&quot;&gt;ECS&lt;/font&gt;&lt;/b&gt;" style="text;html=1;strokeColor=none;fillColor=none;align=center;verticalAlign=middle;whiteSpace=wrap;rounded=0;" vertex="1" parent="1">
          <mxGeometry x="250" y="400" width="60" height="30" as="geometry" />
        </mxCell>
        <mxCell id="infSpyxQJ12MtSqTKsKa-12" value="" style="rounded=1;whiteSpace=wrap;html=1;shadow=0;glass=0;fillColor=#f5f5f5;strokeColor=#666666;fontColor=#333333;" vertex="1" parent="1">
          <mxGeometry x="146.25" y="475" width="270" height="260" as="geometry" />
        </mxCell>
        <mxCell id="infSpyxQJ12MtSqTKsKa-13" value="&lt;b&gt;&lt;font style=&quot;font-size: 18px;&quot;&gt;Node&lt;/font&gt;&lt;/b&gt;" style="text;html=1;strokeColor=none;fillColor=none;align=center;verticalAlign=middle;whiteSpace=wrap;rounded=0;shadow=0;glass=0;" vertex="1" parent="1">
          <mxGeometry x="250" y="438" width="60" height="30" as="geometry" />
        </mxCell>
        <mxCell id="infSpyxQJ12MtSqTKsKa-14" value="Kubelet" style="rounded=0;whiteSpace=wrap;html=1;shadow=0;glass=0;fillColor=#dae8fc;strokeColor=#6c8ebf;" vertex="1" parent="1">
          <mxGeometry x="172.5" y="760" width="217.5" height="40" as="geometry" />
        </mxCell>
        <mxCell id="infSpyxQJ12MtSqTKsKa-20" value="Pod" style="rounded=1;whiteSpace=wrap;html=1;shadow=0;glass=0;fillColor=#1ba1e2;fontColor=#ffffff;strokeColor=#006EAF;" vertex="1" parent="1">
          <mxGeometry x="290" y="505" width="99.5" height="60" as="geometry" />
        </mxCell>
        <mxCell id="infSpyxQJ12MtSqTKsKa-26" value="" style="endArrow=none;dashed=1;html=1;rounded=0;exitX=1;exitY=0.5;exitDx=0;exitDy=0;entryX=0;entryY=0.438;entryDx=0;entryDy=0;entryPerimeter=0;" edge="1" parent="1" source="infSpyxQJ12MtSqTKsKa-20" target="infSpyxQJ12MtSqTKsKa-31">
          <mxGeometry width="50" height="50" relative="1" as="geometry">
            <mxPoint x="410" y="545" as="sourcePoint" />
            <mxPoint x="549.75" y="525" as="targetPoint" />
          </mxGeometry>
        </mxCell>
        <mxCell id="infSpyxQJ12MtSqTKsKa-28" value="Kube-proxy" style="rounded=0;whiteSpace=wrap;html=1;shadow=0;glass=0;fillColor=#f0a30a;fontColor=#000000;strokeColor=#BD7000;" vertex="1" parent="1">
          <mxGeometry x="172.5" y="590" width="214.5" height="45" as="geometry" />
        </mxCell>
        <mxCell id="infSpyxQJ12MtSqTKsKa-27" value="Pod" style="rounded=1;whiteSpace=wrap;html=1;shadow=0;glass=0;fillColor=#1ba1e2;fontColor=#ffffff;strokeColor=#006EAF;" vertex="1" parent="1">
          <mxGeometry x="172.5" y="505" width="99.5" height="60" as="geometry" />
        </mxCell>
        <mxCell id="infSpyxQJ12MtSqTKsKa-30" value="Container Runtime" style="rounded=0;whiteSpace=wrap;html=1;shadow=0;glass=0;fillColor=#fa6800;fontColor=#000000;strokeColor=#C73500;" vertex="1" parent="1">
          <mxGeometry x="172.5" y="660" width="217.5" height="45" as="geometry" />
        </mxCell>
        <mxCell id="infSpyxQJ12MtSqTKsKa-43" style="edgeStyle=orthogonalEdgeStyle;rounded=0;orthogonalLoop=1;jettySize=auto;html=1;exitX=0.5;exitY=1;exitDx=0;exitDy=0;entryX=0.5;entryY=0;entryDx=0;entryDy=0;" edge="1" parent="1" source="infSpyxQJ12MtSqTKsKa-31" target="infSpyxQJ12MtSqTKsKa-44">
          <mxGeometry relative="1" as="geometry">
            <mxPoint x="740" y="775" as="targetPoint" />
          </mxGeometry>
        </mxCell>
        <mxCell id="infSpyxQJ12MtSqTKsKa-31" value="" style="rounded=1;whiteSpace=wrap;html=1;shadow=0;glass=0;strokeColor=#66B2FF;" vertex="1" parent="1">
          <mxGeometry x="550" y="390" width="360" height="210" as="geometry" />
        </mxCell>
        <mxCell id="infSpyxQJ12MtSqTKsKa-32" value="&lt;font size=&quot;1&quot; style=&quot;&quot;&gt;&lt;b style=&quot;font-size: 18px;&quot;&gt;Pod&lt;/b&gt;&lt;/font&gt;" style="text;html=1;strokeColor=none;fillColor=none;align=center;verticalAlign=middle;whiteSpace=wrap;rounded=0;shadow=0;glass=0;" vertex="1" parent="1">
          <mxGeometry x="695" y="400" width="60" height="30" as="geometry" />
        </mxCell>
        <mxCell id="infSpyxQJ12MtSqTKsKa-33" value="" style="rounded=0;whiteSpace=wrap;html=1;shadow=0;glass=0;fillColor=#f5f5f5;fontColor=#333333;strokeColor=#666666;" vertex="1" parent="1">
          <mxGeometry x="580" y="453" width="150" height="105" as="geometry" />
        </mxCell>
        <mxCell id="infSpyxQJ12MtSqTKsKa-34" value="Container" style="text;html=1;strokeColor=none;fillColor=none;align=center;verticalAlign=middle;whiteSpace=wrap;rounded=0;shadow=0;glass=0;" vertex="1" parent="1">
          <mxGeometry x="620" y="458" width="60" height="30" as="geometry" />
        </mxCell>
        <mxCell id="infSpyxQJ12MtSqTKsKa-35" value="Service" style="rounded=1;whiteSpace=wrap;html=1;shadow=0;glass=0;fillColor=#dae8fc;strokeColor=#6c8ebf;" vertex="1" parent="1">
          <mxGeometry x="595" y="488" width="115" height="50" as="geometry" />
        </mxCell>
        <mxCell id="infSpyxQJ12MtSqTKsKa-37" value="" style="rounded=0;whiteSpace=wrap;html=1;shadow=0;glass=0;fillColor=#f5f5f5;fontColor=#333333;strokeColor=#666666;" vertex="1" parent="1">
          <mxGeometry x="740" y="453" width="150" height="105" as="geometry" />
        </mxCell>
        <mxCell id="infSpyxQJ12MtSqTKsKa-38" value="Container" style="text;html=1;strokeColor=none;fillColor=none;align=center;verticalAlign=middle;whiteSpace=wrap;rounded=0;shadow=0;glass=0;" vertex="1" parent="1">
          <mxGeometry x="780" y="458" width="60" height="30" as="geometry" />
        </mxCell>
        <mxCell id="infSpyxQJ12MtSqTKsKa-39" value="Service" style="rounded=1;whiteSpace=wrap;html=1;shadow=0;glass=0;fillColor=#dae8fc;strokeColor=#6c8ebf;" vertex="1" parent="1">
          <mxGeometry x="755" y="488" width="115" height="50" as="geometry" />
        </mxCell>
        <mxCell id="infSpyxQJ12MtSqTKsKa-44" value="" style="rounded=0;whiteSpace=wrap;html=1;shadow=0;glass=0;dashed=1;" vertex="1" parent="1">
          <mxGeometry x="580" y="700" width="300" height="160" as="geometry" />
        </mxCell>
        <mxCell id="infSpyxQJ12MtSqTKsKa-45" value="&lt;font style=&quot;font-size: 18px;&quot;&gt;&lt;b&gt;Storage&lt;/b&gt;&lt;/font&gt;" style="text;html=1;strokeColor=none;fillColor=none;align=center;verticalAlign=middle;whiteSpace=wrap;rounded=0;shadow=0;glass=0;dashed=1;" vertex="1" parent="1">
          <mxGeometry x="700" y="705" width="60" height="30" as="geometry" />
        </mxCell>
        <mxCell id="infSpyxQJ12MtSqTKsKa-46" value="PG" style="shape=cylinder3;whiteSpace=wrap;html=1;boundedLbl=1;backgroundOutline=1;size=15;rounded=0;shadow=0;glass=0;fillColor=#d5e8d4;strokeColor=#82b366;" vertex="1" parent="1">
          <mxGeometry x="630" y="750" width="80" height="70" as="geometry" />
        </mxCell>
        <mxCell id="infSpyxQJ12MtSqTKsKa-47" value="Redis" style="shape=cylinder3;whiteSpace=wrap;html=1;boundedLbl=1;backgroundOutline=1;size=15;rounded=0;shadow=0;glass=0;fillColor=#d5e8d4;strokeColor=#82b366;" vertex="1" parent="1">
          <mxGeometry x="740" y="750" width="80" height="70" as="geometry" />
        </mxCell>
        <mxCell id="infSpyxQJ12MtSqTKsKa-52" value="" style="endArrow=none;dashed=1;html=1;rounded=0;fontSize=18;entryX=-0.008;entryY=0.7;entryDx=0;entryDy=0;entryPerimeter=0;" edge="1" parent="1" source="infSpyxQJ12MtSqTKsKa-20" target="infSpyxQJ12MtSqTKsKa-31">
          <mxGeometry width="50" height="50" relative="1" as="geometry">
            <mxPoint x="440" y="660" as="sourcePoint" />
            <mxPoint x="540" y="660" as="targetPoint" />
          </mxGeometry>
        </mxCell>
        <mxCell id="infSpyxQJ12MtSqTKsKa-11" value="" style="aspect=fixed;perimeter=ellipsePerimeter;html=1;align=center;shadow=0;dashed=0;spacingTop=3;image;image=img/lib/active_directory/users.svg;" vertex="1" parent="1">
          <mxGeometry x="263.25" y="150" width="33" height="50" as="geometry" />
        </mxCell>
      </root>
    </mxGraphModel>
  </diagram>
</mxfile>
